<svg xmlns="http://www.w3.org/2000/svg" width="140" height="196" viewBox="0 0 140 196"><script xmlns=""/><rect width="100%" height="100%" fill="#DDDDDD"/><path fill="#999999" d="M33.87 103.11h2.47v1.76h-7.6v-1.76h2.78V95.1q0-.47.03-.97l-1.98 1.65q-.17.13-.34.16-.16.04-.31.01t-.26-.1q-.11-.07-.17-.16l-.74-1.01 4.19-3.57h1.93v12Zm6.24-3.42h4.18V95.2q0-.64.08-1.41l-4.26 5.9Zm6.22 0h1.73v1.36q0 .19-.13.33-.12.14-.35.14h-1.25v3.35h-2.04v-3.35h-5.8q-.24 0-.42-.15t-.22-.37l-.25-1.18 6.51-8.7h2.22v8.57ZM59.09 98q0 1.8-.39 3.12-.38 1.33-1.06 2.19-.68.87-1.61 1.29-.92.42-2 .42-1.07 0-1.99-.42-.91-.42-1.59-1.29-.67-.86-1.05-2.19-.38-1.32-.38-3.12t.38-3.12q.38-1.32 1.05-2.19.68-.86 1.59-1.29.92-.42 1.99-.42 1.08 0 2 .42.93.43 1.61 1.29.68.87 1.06 2.19.39 1.32.39 3.12Zm-2.42 0q0-1.49-.22-2.47-.22-.98-.59-1.56-.36-.58-.84-.81-.47-.23-.99-.23-.5 0-.97.23t-.83.81q-.36.58-.58 1.56-.21.98-.21 2.47 0 1.49.21 2.47.22.98.58 1.56.36.58.83.81.47.23.97.23.52 0 .99-.23.48-.23.84-.81.37-.58.59-1.56.22-.98.22-2.47Zm17.5 3.73-1.24 1.22-3.22-3.22-3.25 3.24-1.24-1.23 3.24-3.25-3.09-3.1 1.23-1.24 3.1 3.1 3.08-3.08 1.25 1.24-3.09 3.09 3.23 3.23Zm13.01 1.38h2.47v1.76h-7.6v-1.76h2.78V95.1q0-.47.03-.97l-1.97 1.65q-.18.13-.34.16-.17.04-.32.01-.14-.03-.26-.1-.11-.07-.17-.16l-.74-1.01 4.19-3.57h1.93v12Zm6.79-7.85q0 1.15.6 1.75.59.6 1.68.6.57 0 1.02-.18.44-.18.75-.49.3-.32.46-.74.16-.43.16-.93 0-.56-.17-1-.18-.44-.49-.74-.31-.31-.74-.47-.44-.16-.95-.16-.53 0-.96.18-.43.17-.73.49-.31.31-.47.74-.16.43-.16.95Zm-1.15 9.61 4.27-5.33q.16-.2.3-.39l.28-.38q-.48.31-1.05.46-.57.16-1.19.16-.72 0-1.4-.25-.69-.25-1.22-.74-.53-.5-.86-1.24-.32-.74-.32-1.72 0-.93.34-1.73.34-.81.96-1.42.61-.61 1.48-.96.86-.35 1.91-.35 1.05 0 1.89.33.84.34 1.44.93.59.6.91 1.44.32.83.32 1.83 0 .64-.11 1.21t-.31 1.1q-.2.52-.48 1.03-.29.5-.64.99l-3.15 4.49q-.16.23-.48.38-.32.16-.73.16h-2.16Zm18.07-13.74-4.07 4.99-.48.59q.4-.2.86-.31.46-.11.99-.11.78 0 1.52.26.74.25 1.3.77t.9 1.29q.34.77.34 1.8 0 .95-.35 1.8-.35.84-.99 1.46-.64.63-1.53.99-.9.36-1.98.36-1.11 0-1.98-.35-.87-.35-1.49-.98t-.95-1.52q-.32-.89-.32-1.97 0-.97.39-1.99.39-1.03 1.22-2.13l3.28-4.4q.17-.22.5-.39.32-.16.75-.16h2.09Zm-3.54 11.97q.56 0 1.03-.19t.81-.53q.33-.34.52-.8t.19-1q0-.59-.18-1.06-.18-.47-.51-.8-.33-.33-.8-.5-.46-.17-1.02-.17t-1.02.19q-.46.19-.78.53-.32.33-.5.79-.18.47-.18 1 0 .57.15 1.04.16.47.47.8.31.33.76.52.46.18 1.06.18Z"/><script xmlns=""/></svg>